<svg xmlns="http://www.w3.org/2000/svg" viewBox="0 0 400 300">
  <rect width="400" height="300" fill="#E3F2FD"/>
  <!-- a person announcing with a megaphone, info icon -->
  <circle cx="110" cy="120" r="30" fill="#FFCC80"/>
  <path d="M82 112 Q110 76 138 112 Q124 96 110 98 Q96 96 82 112 Z" fill="#5D4037"/>
  <path d="M60 250 Q60 160 110 156 Q160 160 160 250 Z" fill="#1E88E5"/>
  <path d="M140 140 L230 96 V184 Z" fill="#FFB300"/>
  <rect x="128" y="128" width="20" height="26" rx="4" fill="#F57C00"/>
  <g stroke="#1565C0" stroke-width="5" stroke-linecap="round" fill="none">
    <path d="M250 110 q14 30 0 60"/><path d="M270 96 q24 44 0 88"/>
  </g>
  <circle cx="330" cy="80" r="34" fill="#1E88E5"/>
  <circle cx="330" cy="62" r="5" fill="#FFFFFF"/>
  <rect x="325" y="74" width="10" height="28" rx="3" fill="#FFFFFF"/>
  <text x="200" y="292" text-anchor="middle" font-family="Arial, sans-serif" font-size="24" font-weight="bold" fill="#0D47A1">inform</text>
</svg>
