<svg xmlns="http://www.w3.org/2000/svg" viewBox="0 0 400 300">
  <rect width="400" height="300" fill="#E8F5E9"/>
  <!-- a boy holding a door open and smiling -->
  <rect x="60" y="152" width="52" height="84" rx="14" fill="#43A047"/>
  <circle cx="86" cy="126" r="26" fill="#FFCC80"/>
  <path d="M60 124 a26 21 0 0 1 52 0 Z" fill="#4E342E"/>
  <circle cx="78" cy="132" r="3" fill="#3E2723"/><circle cx="94" cy="132" r="3" fill="#3E2723"/>
  <path d="M77 144 q9 9 18 0" stroke="#3E2723" stroke-width="2.5" fill="none" stroke-linecap="round"/>
  <path d="M68 236 v40 M104 236 v40" stroke="#37474F" stroke-width="13" stroke-linecap="round"/>
  <path d="M112 168 h48" stroke="#FFCC80" stroke-width="11" stroke-linecap="round"/>
  <rect x="164" y="80" width="96" height="196" fill="#FFE0B2" stroke="#8D6E63" stroke-width="5"/>
  <circle cx="178" cy="180" r="6" fill="#8D6E63"/>
  <rect x="300" y="160" width="50" height="80" rx="13" fill="#1E88E5"/>
  <circle cx="325" cy="134" r="25" fill="#FFCC80"/>
  <path d="M300 132 a25 20 0 0 1 50 0 Z" fill="#5D4037"/>
  <circle cx="317" cy="140" r="3" fill="#3E2723"/><circle cx="333" cy="140" r="3" fill="#3E2723"/>
  <path d="M316 152 q9 8 18 0" stroke="#3E2723" stroke-width="2.5" fill="none" stroke-linecap="round"/>
  <path d="M308 240 v36 M342 240 v36" stroke="#37474F" stroke-width="13" stroke-linecap="round"/>
  <text x="200" y="40" text-anchor="middle" font-family="Arial, sans-serif" font-size="24" font-weight="bold" fill="#2E7D32">"After you, please!"</text>
  <text x="200" y="66" text-anchor="middle" font-family="Arial, sans-serif" font-size="22" font-weight="bold" fill="#1B5E20">POLITE ✓</text>
</svg>
