<svg xmlns="http://www.w3.org/2000/svg" viewBox="0 0 400 300">
  <rect width="400" height="300" fill="#E3F2FD"/>
  <rect x="72" y="46" width="256" height="208" rx="10" fill="#FFFFFF"/>
  <rect x="72" y="46" width="256" height="208" rx="10" fill="none" stroke="#B0BEC5" stroke-width="2"/>
  <rect x="92" y="66" width="150" height="18" rx="6" fill="#37474F"/>
  <rect x="252" y="66" width="56" height="10" rx="5" fill="#CFD8DC"/>
  <rect x="252" y="80" width="40" height="8" rx="4" fill="#CFD8DC"/>
  <rect x="92" y="100" width="104" height="74" rx="6" fill="#90CAF9"/>
  <circle cx="118" cy="122" r="10" fill="#FFF176"/>
  <path d="M92 174 L128 132 L152 158 L170 140 L196 174 Z" fill="#66BB6A"/>
  <rect x="208" y="102" width="100" height="9" rx="4.5" fill="#B0BEC5"/>
  <rect x="208" y="118" width="100" height="9" rx="4.5" fill="#B0BEC5"/>
  <rect x="208" y="134" width="100" height="9" rx="4.5" fill="#B0BEC5"/>
  <rect x="208" y="150" width="72" height="9" rx="4.5" fill="#B0BEC5"/>
  <rect x="92" y="188" width="216" height="9" rx="4.5" fill="#CFD8DC"/>
  <rect x="92" y="204" width="216" height="9" rx="4.5" fill="#CFD8DC"/>
  <rect x="92" y="220" width="148" height="9" rx="4.5" fill="#CFD8DC"/>
</svg>
