<svg xmlns="http://www.w3.org/2000/svg" viewBox="0 0 400 300">
  <rect width="400" height="300" fill="#CFD8DC"/>
  <ellipse cx="120" cy="60" rx="70" ry="30" fill="#78909C"/><ellipse cx="290" cy="50" rx="60" ry="26" fill="#78909C"/>
  <g stroke="#546E7A" stroke-width="4" stroke-linecap="round">
    <path d="M70 100 l-8 24 M110 100 l-8 24 M150 100 l-8 24 M250 90 l-8 24 M290 90 l-8 24 M330 90 l-8 24 M90 140 l-8 24 M270 130 l-8 24"/>
  </g>
  <rect x="0" y="200" width="400" height="100" fill="#2E7D32"/>
  <rect x="30" y="200" width="340" height="60" fill="none" stroke="#FFFFFF" stroke-width="4"/>
  <circle cx="200" cy="230" r="10" fill="#FFFFFF"/>
  <circle cx="120" cy="190" r="16" fill="#FFCC80"/>
  <path d="M104 210 h32 l4 40 h-40 Z" fill="#E53935"/>
  <circle cx="280" cy="190" r="16" fill="#FFCC80"/>
  <path d="M264 210 h32 l4 40 h-40 Z" fill="#1E88E5"/>
  <text x="200" y="175" text-anchor="middle" font-family="Arial, sans-serif" font-size="20" font-weight="bold" fill="#263238">Despite the rain, the match goes on</text>
</svg>
