<svg xmlns="http://www.w3.org/2000/svg" viewBox="0 0 400 300">
  <rect width="400" height="300" fill="#ECEFF1"/>
  <circle cx="200" cy="140" r="56" fill="#FFCC80"/>
  <path d="M166 108 a44 44 0 0 1 68 8 L230 130 L166 130 Z" fill="#6D4C41"/>
  <path d="M176 128 q8 -6 16 -2 M208 126 q8 -4 16 2" stroke="#37474F" stroke-width="3.5" fill="none" stroke-linecap="round"/>
  <circle cx="184" cy="142" r="4.5" fill="#37474F"/>
  <circle cx="216" cy="142" r="4.5" fill="#37474F"/>
  <path d="M180 170 q6 -6 10 0 q4 6 10 0 q4 -6 10 0 q4 6 10 0" stroke="#37474F" stroke-width="3.5" fill="none" stroke-linecap="round"/>
  <circle cx="172" cy="156" r="8" fill="#F48FB1" opacity="0.55"/>
  <circle cx="228" cy="156" r="8" fill="#F48FB1" opacity="0.55"/>
  <path d="M252 100 q8 12 0 19 q-8 -7 0 -19 Z" fill="#4FC3F7"/>
  <path d="M268 130 q7 10 0 16 q-7 -6 0 -16 Z" fill="#4FC3F7"/>
  <path d="M144 92 q-7 10 0 16 q7 -6 0 -16 Z" fill="#4FC3F7"/>
  <rect x="168" y="196" width="64" height="70" rx="22" fill="#78909C"/>
  <path d="M170 208 q-16 6 -22 24 M230 208 q16 6 22 24" stroke="#FFCC80" stroke-width="9" stroke-linecap="round" fill="none"/>
  <circle cx="146" cy="238" r="8" fill="#FFCC80"/>
  <circle cx="254" cy="238" r="8" fill="#FFCC80"/>
  <path d="M104 128 L90 122 M106 142 L92 142 M104 156 L90 162" stroke="#B0BEC5" stroke-width="4" stroke-linecap="round"/>
  <path d="M296 128 L310 122 M294 142 L308 142 M296 156 L310 162" stroke="#B0BEC5" stroke-width="4" stroke-linecap="round"/>
</svg>
