<svg xmlns="http://www.w3.org/2000/svg" viewBox="0 0 400 300">
  <rect width="400" height="300" fill="#ECEFF1"/>
  <!-- two players face to face -->
  <rect x="88" y="132" width="44" height="70" rx="12" fill="#1E88E5"/>
  <circle cx="110" cy="110" r="22" fill="#FFCC80"/>
  <path d="M88 108 a22 17.6 0 0 1 44 0 Z" fill="#4E342E"/>
  <circle cx="103" cy="112" r="2.5" fill="#3E2723"/><circle cx="117" cy="112" r="2.5" fill="#3E2723"/>
  <path d="M98 105 l8 4 M122 105 l-8 4" stroke="#3E2723" stroke-width="2.5" stroke-linecap="round"/>
  <path d="M103 123 h14" stroke="#3E2723" stroke-width="2.5" stroke-linecap="round"/>
  <rect x="268" y="132" width="44" height="70" rx="12" fill="#E53935"/>
  <circle cx="290" cy="110" r="22" fill="#FFCC80"/>
  <path d="M268 108 a22 17.6 0 0 1 44 0 Z" fill="#212121"/>
  <circle cx="283" cy="112" r="2.5" fill="#3E2723"/><circle cx="297" cy="112" r="2.5" fill="#3E2723"/>
  <path d="M278 105 l8 4 M302 105 l-8 4" stroke="#3E2723" stroke-width="2.5" stroke-linecap="round"/>
  <path d="M283 123 h14" stroke="#3E2723" stroke-width="2.5" stroke-linecap="round"/>
  <path d="M98 202 v48 M122 202 v48 M278 202 v48 M302 202 v48" stroke="#37474F" stroke-width="12" stroke-linecap="round"/>
  <text x="200" y="150" text-anchor="middle" font-family="Arial, sans-serif" font-size="34" font-weight="bold" fill="#FF6F00">VS</text>
  <text x="110" y="60" text-anchor="middle" font-family="Arial, sans-serif" font-size="22" font-weight="bold" fill="#1565C0">me</text>
  <text x="290" y="60" text-anchor="middle" font-family="Arial, sans-serif" font-size="22" font-weight="bold" fill="#C62828">opponent</text>
  <text x="200" y="285" text-anchor="middle" font-family="Arial, sans-serif" font-size="20" fill="#455A64">the person you play against</text>
</svg>
