<svg xmlns="http://www.w3.org/2000/svg" viewBox="0 0 400 300">
  <rect width="400" height="300" fill="#E3F2FD"/>
  <rect y="210" width="400" height="90" fill="#CFD8DC"/>
  <rect x="150" y="30" width="100" height="40" rx="10" fill="#5C6BC0"/>
  <circle cx="200" cy="42" r="3" fill="#FFF"/>
  <path d="M188 60 A12 12 0 0 1 212 60 Z" fill="#FFF"/>
  <rect x="184" y="59" width="32" height="4" rx="2" fill="#FFF"/>
  <path d="M96 168 L100 140 H124 L128 168 Z" fill="#EF6C00"/>
  <circle cx="112" cy="132" r="12" fill="#66BB6A"/>
  <circle cx="100" cy="124" r="10" fill="#81C784"/>
  <circle cx="124" cy="124" r="10" fill="#81C784"/>
  <circle cx="112" cy="116" r="9" fill="#A5D6A7"/>
  <circle cx="200" cy="92" r="8" fill="#6D4C41"/>
  <circle cx="200" cy="120" r="26" fill="#FFCC80"/>
  <path d="M174 116 a26 26 0 0 1 52 0 L226 124 L174 124 Z" fill="#6D4C41"/>
  <circle cx="191" cy="122" r="3" fill="#37474F"/>
  <circle cx="209" cy="122" r="3" fill="#37474F"/>
  <path d="M192 132 q8 7 16 0" stroke="#37474F" stroke-width="2.5" fill="none" stroke-linecap="round"/>
  <rect x="172" y="146" width="56" height="40" rx="18" fill="#26A69A"/>
  <rect x="60" y="176" width="280" height="70" rx="8" fill="#8D6E63"/>
  <rect x="76" y="196" width="248" height="36" rx="6" fill="#A1887F" opacity="0.5"/>
  <rect x="52" y="168" width="296" height="14" rx="6" fill="#A1887F"/>
  <circle cx="290" cy="150" r="3" fill="#F9A825"/>
  <path d="M276 164 A14 14 0 0 1 304 164 Z" fill="#FFD54F"/>
  <rect x="272" y="163" width="36" height="6" rx="3" fill="#F9A825"/>
  <path d="M320 128 l2.5 6 6 2.5 -6 2.5 -2.5 6 -2.5 -6 -6 -2.5 6 -2.5 Z" fill="#FFD54F"/>
</svg>
